<svg width="24" height="24" viewBox="0 0 15 16" fill="none" xmlns="http://www.w3.org/2000/svg">
<path fill-rule="evenodd" clip-rule="evenodd" d="M12.9562 11.1359C11.4234 10.8673 9.89467 9.74164 8.97359 8.02226C7.88471 5.98963 7.96279 3.72039 9.0142 2.27944C9.12197 2.13175 9.23996 1.99276 9.36797 1.86362C9.61485 1.61455 9.5435 1.14979 9.19633 1.09307C8.96992 1.05608 8.73988 1.02981 8.50675 1.01481C8.35402 1.00499 8.19996 1 8.04473 1C4.15403 1 1 4.13401 1 8C1 11.866 4.15403 15 8.04473 15C10.2587 15 12.2342 13.9852 13.5256 12.3981C13.6724 12.2178 13.8103 12.0301 13.9387 11.8356C14.1217 11.5585 13.8679 11.2066 13.5345 11.1961C13.3425 11.19 13.1493 11.1697 12.9562 11.1359Z" stroke="#C8BCF6" stroke-width="1.5"/>
</svg>
